<?xml version="1.0" encoding="UTF-8" standalone="no"?>
<!-- Generator: visioncortex VTracer -->

<svg
   id="svg"
   version="1.1"
   style="display:block"
   viewBox="0 0 90000 90000"
   width="90000"
   height="90000"
   sodipodi:docname="export-2026-05-30 124115.svg"
   inkscape:version="1.4.4 (dcaf3e7, 2026-05-05)"
   xmlns:inkscape="http://www.inkscape.org/namespaces/inkscape"
   xmlns:sodipodi="http://sodipodi.sourceforge.net/DTD/sodipodi-0.dtd"
   xmlns="http://www.w3.org/2000/svg"
   xmlns:svg="http://www.w3.org/2000/svg">
  <sodipodi:namedview
     id="namedview1"
     pagecolor="#ffffff"
     bordercolor="#000000"
     borderopacity="0.25"
     inkscape:showpageshadow="2"
     inkscape:pageopacity="0.0"
     inkscape:pagecheckerboard="0"
     inkscape:deskcolor="#d1d1d1"
     inkscape:zoom="0.01"
     inkscape:cx="33650"
     inkscape:cy="57650"
     inkscape:window-width="2560"
     inkscape:window-height="1351"
     inkscape:window-x="2391"
     inkscape:window-y="-9"
     inkscape:window-maximized="1"
     inkscape:current-layer="svg" />
  <defs
     id="defs8" />
  <a
     id="a9"
     transform="translate(1306.9294,984.63823)">
    <path
       d="m 34413.363,2.6990291 c 5909.102,0 11818.204,0 17906.374,0 0,4431.8278709 0,8863.6553709 0,13429.7809709 1303.579,-879.441 1303.579,-879.441 2633.494,-1776.648 3899.359,-2228.2053 7237.013,-2224.454 11635.647,-2028.4566 697.668,16.158 1395.333,32.316 2114.142,48.9626 1701.94,41.7656 3403.305,105.9826 5104.367,174.8671 704.925,8944.7519 704.925,8944.7519 -2182.341,12646.3769 -757.103,553.979 -1514.207,1107.957 -2294.254,1678.723 -443.183,443.183 -443.183,443.183 -895.318,895.318 -2951.732,256.143 -5903.563,401.911 -8862.256,556.077 -2922.99,145.853 -2922.99,145.853 -5462.845,2129.88 -943.803,2831.404 -1175.334,5255.056 -1398.936,8225.741 -129.26,1717.332 -258.524,3434.665 -391.7,5204.039 -5909.106,0 -11818.208,0 -17906.374,0 0,-4431.825 0,-8863.654 0,-13429.78 -4906.065,-1635.354 -8553.402,-2121.13 -13604.649,-2378.191 -2522.576,-309.173 -4012.3,-656.224 -6092.365,-2098.403 -2001.653,-2845.116 -1983.77,-5318.154 -1902.553,-8729.358 24.237,-1322.623 24.237,-1322.623 48.964,-2671.966 20.78,-669.391 41.549,-1338.782 62.953,-2028.4569 2574.958,-97.1684 5146.208,-167.9185 7722.123,-223.8297 723.634,-30.0087 1447.269,-60.0142 2192.833,-90.931 709.783,-11.5399 1419.567,-23.0833 2150.86,-34.9725 647.032,-18.7546 1294.061,-37.5091 1960.698,-56.8317 2089.224,406.5656 2089.224,406.5656 7461.136,3987.8408 0,-4431.8279 0,-8863.6559 0,-13429.7812653 z"
       style="fill:#fdfdfd;stroke-width:895.318"
       id="path5" />
    <path
       d="m 34413.363,46559.272 c 5909.102,0 11818.204,0 17906.374,0 0,6500.015 0,13000.03 0,19697.014 3840.915,0 7681.834,0 11639.143,0 -1577.104,11613.212 -1577.104,11613.212 -6267.231,16115.737 -6262.355,4696.763 -11855.318,6388.049 -19697.013,5371.913 -5990.986,-2011.26 -9256.469,-5203.852 -12198.718,-10743.825 -1953.306,-4144.033 -2126.38,-5898.469 -2126.38,-10743.825 3545.46,0 7090.925,0 10743.825,0 0,-6500.015 0,-13000.027 0,-19697.014 z"
       style="fill:#fcfcfc;stroke-width:895.318"
       id="path6" />
    <path
       d="m 59482.286,32234.174 c 15361.604,-720.075 15361.604,-720.075 20592.332,3581.273 7032.967,6840.285 7032.967,6840.285 7264.188,12208.119 -4.692,923.659 -9.384,1847.317 -14.217,2798.962 -2.823,1001.202 -5.751,2002.401 -8.75,3033.944 -7.514,1045.055 -14.993,2090.113 -22.719,3166.838 -4.022,1055.444 -8.079,2110.889 -12.242,3198.318 -10.549,2608.477 -25.296,5216.863 -43.719,7825.294 -1691.363,64.053 -1691.363,64.053 -3416.898,129.401 -951.395,36.031 -951.395,36.031 -1922.007,72.789 -1823.644,-202.19 -1823.644,-202.19 -4453.641,-2272.613 -3580.423,-4665.396 -2923.791,-9568.008 -3035.691,-15241.404 -739.146,-4030.916 -1803.231,-5345.202 -5078.137,-7757.096 -2570.456,-720.346 -2570.456,-720.346 -5204.042,-727.448 -1532.673,-55.395 -3065.346,-110.795 -4644.464,-167.87 0,-3250.009 0,-6500.015 0,-9848.507 z"
       style="fill:#f7f7f7;stroke-width:895.318"
       id="path7" />
    <path
       d="m 20200.175,32178.217 c 675.164,4.022 1350.324,8.079 2045.943,12.242 1668.263,10.549 3336.487,26.601 5004.693,43.719 0,3250.006 0,6500.015 0,9848.507 -2418.992,87.433 -4837.983,174.866 -7256.978,262.299 -3574.704,873.173 -4891.703,2159.532 -7068.12,5109.613 -401.463,2544.322 -587.615,4629.711 -559.575,7162.549 0,4540.806 -117.808,7930.886 -3021.7015,11639.143 C 6081.7372,68431.422 4230.0075,68191.786 391.2478,68046.926 286.93001,64130.11 223.5011,60213.651 167.4209,56295.869 137.3981,55187.911 107.40351,54079.953 76.488139,52938.423 -33.79187,42682.217 -33.79187,42682.217 3972.524,38501.409 c 1853.5889,-1668.231 1853.5889,-1668.231 3693.1896,-2965.746 917.5266,-659.577 917.5266,-659.577 1853.589,-1332.483 3505.7744,-2329.594 6594.4724,-2070.837 10680.8724,-2024.959 z"
       style="fill:#fafafa;stroke-width:895.318"
       id="path8" />
  </a>
</svg>
